<svg xmlns="http://www.w3.org/2000/svg" viewBox="0 0 200 200">
<defs>
  <linearGradient id="g2" x1="0%" y1="0%" x2="100%" y2="100%">
    <stop offset="0%" stop-color="#f43f5e"/><stop offset="100%" stop-color="#ec4899"/>
  </linearGradient>
  <filter id="gl2" x="-20%" y="-20%" width="140%" height="140%"><feGaussianBlur stdDeviation="5" result="b"/><feMerge><feMergeNode in="b"/><feMergeNode in="SourceGraphic"/></feMerge></filter>
</defs>
<rect x="2" y="2" width="196" height="196" rx="14" ry="14" fill="none" stroke="url(#g2)" stroke-width="5"/>
<rect x="7" y="7" width="186" height="186" rx="12" ry="12" fill="none" stroke="#fda4af" stroke-width="1.5" stroke-dasharray="4,3"/>
<polyline points="28,8 8,8 8,28" stroke="#f43f5e" stroke-width="3" fill="none" stroke-linecap="round" stroke-linejoin="round"/><polyline points="172,8 192,8 192,28" stroke="#f43f5e" stroke-width="3" fill="none" stroke-linecap="round" stroke-linejoin="round"/><polyline points="28,192 8,192 8,172" stroke="#f43f5e" stroke-width="3" fill="none" stroke-linecap="round" stroke-linejoin="round"/><polyline points="172,192 192,192 192,172" stroke="#f43f5e" stroke-width="3" fill="none" stroke-linecap="round" stroke-linejoin="round"/>
<rect x="94" y="1" width="12" height="4" rx="2" fill="#fda4af"/>
<rect x="94" y="195" width="12" height="4" rx="2" fill="#fda4af"/>
<rect x="1" y="94" width="4" height="12" rx="2" fill="#fda4af"/>
<rect x="195" y="94" width="4" height="12" rx="2" fill="#fda4af"/>
</svg>