<svg xmlns="http://www.w3.org/2000/svg" viewBox="0 0 200 200">
<defs>
  <linearGradient id="g3" x1="0%" y1="0%" x2="100%" y2="0%">
    <stop offset="0%" stop-color="#0ea5e9"/><stop offset="50%" stop-color="#38bdf8"/><stop offset="100%" stop-color="#0ea5e9"/>
  </linearGradient>
  <filter id="gl3" x="-20%" y="-20%" width="140%" height="140%"><feGaussianBlur stdDeviation="6" result="b"/><feMerge><feMergeNode in="b"/><feMergeNode in="SourceGraphic"/></feMerge></filter>
</defs>
<rect x="2" y="2" width="196" height="196" rx="12" ry="12" fill="none" stroke="url(#g3)" stroke-width="4"/>
<rect x="7" y="7" width="186" height="186" rx="10" ry="10" fill="none" stroke="#7dd3fc" stroke-width="1.5" stroke-dasharray="8,4"/>
<polyline points="32,8 8,8 8,32" stroke="#38bdf8" stroke-width="3.5" fill="none" stroke-linecap="round" stroke-linejoin="round"/><polyline points="168,8 192,8 192,32" stroke="#38bdf8" stroke-width="3.5" fill="none" stroke-linecap="round" stroke-linejoin="round"/><polyline points="32,192 8,192 8,168" stroke="#38bdf8" stroke-width="3.5" fill="none" stroke-linecap="round" stroke-linejoin="round"/><polyline points="168,192 192,192 192,168" stroke="#38bdf8" stroke-width="3.5" fill="none" stroke-linecap="round" stroke-linejoin="round"/>
<polygon points="100,1 103,6 97,6" fill="#7dd3fc"/>
<polygon points="100,199 103,194 97,194" fill="#7dd3fc"/>
<polygon points="1,100 6,97 6,103" fill="#7dd3fc"/>
<polygon points="199,100 194,97 194,103" fill="#7dd3fc"/>
</svg>