<svg xmlns="http://www.w3.org/2000/svg" viewBox="0 0 200 200">
<defs>
  <linearGradient id="g4" x1="0%" y1="0%" x2="100%" y2="100%">
    <stop offset="0%" stop-color="#7c3aed"/><stop offset="50%" stop-color="#a855f7"/><stop offset="100%" stop-color="#6d28d9"/>
  </linearGradient>
  <filter id="gl4" x="-20%" y="-20%" width="140%" height="140%"><feGaussianBlur stdDeviation="5" result="b"/><feMerge><feMergeNode in="b"/><feMergeNode in="SourceGraphic"/></feMerge></filter>
</defs>
<rect x="2" y="2" width="196" height="196" rx="14" ry="14" fill="none" stroke="url(#g4)" stroke-width="4.5"/>
<rect x="7" y="7" width="186" height="186" rx="11" ry="11" fill="none" stroke="#c4b5fd" stroke-width="1" stroke-dasharray="3,5"/>
<polyline points="30,8 8,8 8,30" stroke="#a855f7" stroke-width="3" fill="none" stroke-linecap="round" stroke-linejoin="round"/><polyline points="170,8 192,8 192,30" stroke="#a855f7" stroke-width="3" fill="none" stroke-linecap="round" stroke-linejoin="round"/><polyline points="30,192 8,192 8,170" stroke="#a855f7" stroke-width="3" fill="none" stroke-linecap="round" stroke-linejoin="round"/><polyline points="170,192 192,192 192,170" stroke="#a855f7" stroke-width="3" fill="none" stroke-linecap="round" stroke-linejoin="round"/>
<circle cx="10.0" cy="5.0" r="2" fill="#e9d5ff" opacity="0.9"/>
<circle cx="10.0" cy="195.0" r="1" fill="#e9d5ff" opacity="0.9"/>
<circle cx="2.0" cy="10.0" r="2" fill="#e9d5ff" opacity="0.9"/>
<circle cx="192.0" cy="10.0" r="1" fill="#e9d5ff" opacity="0.9"/>
<circle cx="70.0" cy="9.0" r="2" fill="#e9d5ff" opacity="0.9"/>
<circle cx="70.0" cy="190.0" r="1" fill="#e9d5ff" opacity="0.9"/>
<circle cx="6.0" cy="70.0" r="2" fill="#e9d5ff" opacity="0.9"/>
<circle cx="196.0" cy="70.0" r="1" fill="#e9d5ff" opacity="0.9"/>
<circle cx="130.0" cy="4.0" r="2" fill="#e9d5ff" opacity="0.9"/>
<circle cx="130.0" cy="194.0" r="1" fill="#e9d5ff" opacity="0.9"/>
<circle cx="10.0" cy="130.0" r="2" fill="#e9d5ff" opacity="0.9"/>
<circle cx="191.0" cy="130.0" r="1" fill="#e9d5ff" opacity="0.9"/>
<circle cx="190.0" cy="8.0" r="2" fill="#e9d5ff" opacity="0.9"/>
<circle cx="190.0" cy="189.0" r="1" fill="#e9d5ff" opacity="0.9"/>
<circle cx="5.0" cy="190.0" r="2" fill="#e9d5ff" opacity="0.9"/>
<circle cx="195.0" cy="190.0" r="1" fill="#e9d5ff" opacity="0.9"/>
</svg>