<svg xmlns="http://www.w3.org/2000/svg" viewBox="0 0 200 200">
<defs>
  <linearGradient id="g6" x1="0%" y1="0%" x2="100%" y2="100%">
    <stop offset="0%" stop-color="#059669"/><stop offset="50%" stop-color="#34d399"/><stop offset="100%" stop-color="#065f46"/>
  </linearGradient>
  <filter id="gl6" x="-20%" y="-20%" width="140%" height="140%"><feGaussianBlur stdDeviation="4" result="b"/><feMerge><feMergeNode in="b"/><feMergeNode in="SourceGraphic"/></feMerge></filter>
</defs>
<rect x="2" y="2" width="196" height="196" rx="12" ry="12" fill="none" stroke="url(#g6)" stroke-width="4.5"/>
<rect x="7" y="7" width="186" height="186" rx="10" ry="10" fill="none" stroke="#6ee7b7" stroke-width="1" stroke-dasharray="6,3"/>
<polyline points="31,7 7,7 7,31" stroke="#34d399" stroke-width="3.5" fill="none" stroke-linecap="round" stroke-linejoin="round"/><polyline points="169,7 193,7 193,31" stroke="#34d399" stroke-width="3.5" fill="none" stroke-linecap="round" stroke-linejoin="round"/><polyline points="31,193 7,193 7,169" stroke="#34d399" stroke-width="3.5" fill="none" stroke-linecap="round" stroke-linejoin="round"/><polyline points="169,193 193,193 193,169" stroke="#34d399" stroke-width="3.5" fill="none" stroke-linecap="round" stroke-linejoin="round"/>
<polygon points="100,2 103,7 97,7" fill="#6ee7b7"/>
<polygon points="100,198 97,193 103,193" fill="#6ee7b7"/>
<polygon points="2,100 7,97 7,103" fill="#6ee7b7"/>
<polygon points="198,100 193,97 193,103" fill="#6ee7b7"/>
</svg>