<svg xmlns="http://www.w3.org/2000/svg" viewBox="0 0 200 200">
<defs>
  <linearGradient id="g9" x1="0%" y1="0%" x2="100%" y2="0%">
    <stop offset="0%" stop-color="#22d3ee"/><stop offset="50%" stop-color="#818cf8"/><stop offset="100%" stop-color="#22d3ee"/>
  </linearGradient>
  <filter id="gl9" x="-20%" y="-20%" width="140%" height="140%"><feGaussianBlur stdDeviation="6" result="b"/><feMerge><feMergeNode in="b"/><feMergeNode in="SourceGraphic"/></feMerge></filter>
</defs>
<rect x="2" y="2" width="196" height="196" rx="10" ry="10" fill="none" stroke="url(#g9)" stroke-width="4"/>
<rect x="7" y="7" width="186" height="186" rx="8" ry="8" fill="none" stroke="rgba(34,211,238,0.4)" stroke-width="1.5" stroke-dasharray="10,6"/>
<polyline points="34,6 6,6 6,34" stroke="#22d3ee" stroke-width="3" fill="none" stroke-linecap="round" stroke-linejoin="round"/><polyline points="166,6 194,6 194,34" stroke="#22d3ee" stroke-width="3" fill="none" stroke-linecap="round" stroke-linejoin="round"/><polyline points="34,194 6,194 6,166" stroke="#22d3ee" stroke-width="3" fill="none" stroke-linecap="round" stroke-linejoin="round"/><polyline points="166,194 194,194 194,166" stroke="#22d3ee" stroke-width="3" fill="none" stroke-linecap="round" stroke-linejoin="round"/>
<line x1="35" y1="2" x2="50" y2="2" stroke="#818cf8" stroke-width="2"/>
<line x1="150" y1="2" x2="165" y2="2" stroke="#818cf8" stroke-width="2"/>
<line x1="35" y1="198" x2="50" y2="198" stroke="#818cf8" stroke-width="2"/>
<line x1="150" y1="198" x2="165" y2="198" stroke="#818cf8" stroke-width="2"/>
<line x1="2" y1="35" x2="2" y2="50" stroke="#818cf8" stroke-width="2"/>
<line x1="2" y1="150" x2="2" y2="165" stroke="#818cf8" stroke-width="2"/>
<line x1="198" y1="35" x2="198" y2="50" stroke="#818cf8" stroke-width="2"/>
<line x1="198" y1="150" x2="198" y2="165" stroke="#818cf8" stroke-width="2"/>
</svg>