<svg xmlns="http://www.w3.org/2000/svg" viewBox="0 0 200 200">
<defs>
  <linearGradient id="g11a" x1="0%" y1="0%" x2="100%" y2="100%">
    <stop offset="0%" stop-color="#e0f2fe"/><stop offset="30%" stop-color="#7dd3fc"/>
    <stop offset="60%" stop-color="#0ea5e9"/><stop offset="100%" stop-color="#bae6fd"/>
  </linearGradient>
  <filter id="gl11" x="-20%" y="-20%" width="140%" height="140%"><feGaussianBlur stdDeviation="5" result="b"/><feMerge><feMergeNode in="b"/><feMergeNode in="SourceGraphic"/></feMerge></filter>
</defs>
<rect x="2" y="2" width="196" height="196" rx="14" ry="14" fill="none" stroke="url(#g11a)" stroke-width="5"/>
<rect x="8" y="8" width="184" height="184" rx="11" ry="11" fill="none" stroke="rgba(125,211,252,0.5)" stroke-width="1.5" stroke-dasharray="5,4"/>
<polyline points="30,8 8,8 8,30" stroke="#7dd3fc" stroke-width="3" fill="none" stroke-linecap="round" stroke-linejoin="round"/><polyline points="170,8 192,8 192,30" stroke="#7dd3fc" stroke-width="3" fill="none" stroke-linecap="round" stroke-linejoin="round"/><polyline points="30,192 8,192 8,170" stroke="#7dd3fc" stroke-width="3" fill="none" stroke-linecap="round" stroke-linejoin="round"/><polyline points="170,192 192,192 192,170" stroke="#7dd3fc" stroke-width="3" fill="none" stroke-linecap="round" stroke-linejoin="round"/>
<polygon points="100,2 103,7 100,12 97,7" fill="#e0f2fe" stroke="#7dd3fc" stroke-width="0.5"/>
<polygon points="100,198 103,193 100,188 97,193" fill="#e0f2fe" stroke="#7dd3fc" stroke-width="0.5"/>
<polygon points="2,100 7,97 12,100 7,103" fill="#e0f2fe" stroke="#7dd3fc" stroke-width="0.5"/>
<polygon points="198,100 193,97 188,100 193,103" fill="#e0f2fe" stroke="#7dd3fc" stroke-width="0.5"/>
</svg>