<svg xmlns="http://www.w3.org/2000/svg" viewBox="0 0 200 200">
<defs>
  <linearGradient id="g17" x1="0%" y1="0%" x2="100%" y2="100%">
    <stop offset="0%" stop-color="#4ade80"/><stop offset="50%" stop-color="#22c55e"/><stop offset="100%" stop-color="#16a34a"/>
  </linearGradient>
  <filter id="gl17" x="-20%" y="-20%" width="140%" height="140%"><feGaussianBlur stdDeviation="6" result="b"/><feMerge><feMergeNode in="b"/><feMergeNode in="SourceGraphic"/></feMerge></filter>
</defs>
<rect x="2" y="2" width="196" height="196" rx="12" ry="12" fill="none" stroke="url(#g17)" stroke-width="5"/>
<rect x="8" y="8" width="184" height="184" rx="9" ry="9" fill="none" stroke="rgba(74,222,128,0.4)" stroke-width="1.5" stroke-dasharray="4,5"/>
<polyline points="33,7 7,7 7,33" stroke="#4ade80" stroke-width="3.5" fill="none" stroke-linecap="round" stroke-linejoin="round"/><polyline points="167,7 193,7 193,33" stroke="#4ade80" stroke-width="3.5" fill="none" stroke-linecap="round" stroke-linejoin="round"/><polyline points="33,193 7,193 7,167" stroke="#4ade80" stroke-width="3.5" fill="none" stroke-linecap="round" stroke-linejoin="round"/><polyline points="167,193 193,193 193,167" stroke="#4ade80" stroke-width="3.5" fill="none" stroke-linecap="round" stroke-linejoin="round"/>
<line x1="30" y1="3" x2="40" y2="3" stroke="#86efac" stroke-width="2" stroke-linecap="round"/>
<line x1="160" y1="3" x2="170" y2="3" stroke="#86efac" stroke-width="2" stroke-linecap="round"/>
<line x1="30" y1="197" x2="40" y2="197" stroke="#86efac" stroke-width="2" stroke-linecap="round"/>
<line x1="160" y1="197" x2="170" y2="197" stroke="#86efac" stroke-width="2" stroke-linecap="round"/>
</svg>