<svg xmlns="http://www.w3.org/2000/svg" viewBox="0 0 200 200">
<defs>
  <linearGradient id="g20a" x1="0%" y1="0%" x2="100%" y2="100%">
    <stop offset="0%" stop-color="#f8fafc"/><stop offset="20%" stop-color="#94a3b8"/>
    <stop offset="40%" stop-color="#f1f5f9"/><stop offset="60%" stop-color="#64748b"/>
    <stop offset="80%" stop-color="#e2e8f0"/><stop offset="100%" stop-color="#475569"/>
  </linearGradient>
  <filter id="gl20" x="-20%" y="-20%" width="140%" height="140%"><feGaussianBlur stdDeviation="4" result="b"/><feMerge><feMergeNode in="b"/><feMergeNode in="SourceGraphic"/></feMerge></filter>
</defs>
<rect x="2" y="2" width="196" height="196" rx="14" ry="14" fill="none" stroke="url(#g20a)" stroke-width="5"/>
<rect x="7.5" y="7.5" width="185.0" height="185.0" rx="10" ry="10" fill="none" stroke="rgba(241,245,249,0.8)" stroke-width="2" stroke-dasharray="5,4"/>
<polyline points="32,8 8,8 8,32" stroke="#e2e8f0" stroke-width="3.5" fill="none" stroke-linecap="round" stroke-linejoin="round"/><polyline points="168,8 192,8 192,32" stroke="#e2e8f0" stroke-width="3.5" fill="none" stroke-linecap="round" stroke-linejoin="round"/><polyline points="32,192 8,192 8,168" stroke="#e2e8f0" stroke-width="3.5" fill="none" stroke-linecap="round" stroke-linejoin="round"/><polyline points="168,192 192,192 192,168" stroke="#e2e8f0" stroke-width="3.5" fill="none" stroke-linecap="round" stroke-linejoin="round"/>
<polygon points="100,2 102.5,6 100,10 97.5,6" fill="#f1f5f9" stroke="#94a3b8" stroke-width="0.5"/>
<polygon points="100,198 102.5,194 100,190 97.5,194" fill="#f1f5f9" stroke="#94a3b8" stroke-width="0.5"/>
<polygon points="2,100 6,97.5 10,100 6,102.5" fill="#f1f5f9" stroke="#94a3b8" stroke-width="0.5"/>
<polygon points="198,100 194,97.5 190,100 194,102.5" fill="#f1f5f9" stroke="#94a3b8" stroke-width="0.5"/>
</svg>