<svg xmlns="http://www.w3.org/2000/svg" viewBox="0 0 200 200">
<defs>
  <mask id="m">
    <rect width="200" height="200" fill="white" rx="10"/>
    <rect x="14" y="14" width="172" height="172" fill="black"/>
  </mask>
  
</defs>
<rect width="200" height="200" fill="#fff" mask="url(#m)" rx="10"/>
<rect width="200" height="200" fill="#6c5ce7" mask="url(#m)"/>
<polygon points="100,1 102.28253563910837,6.2583592135001265 103.52671151375483,11.854101966249685 98.58931539449806,8.941640786499875 94.29366090222908,5.145898033750316 100,4.6 105.70633909777092,5.145898033750314 101.41068460550194,8.941640786499875 96.47328848624517,11.854101966249686 97.71746436089163,6.2583592135001265" fill="#fff"/>
<polygon points="193,94 195.28253563910837,99.25835921350013 196.52671151375483,104.85410196624969 191.58931539449807,101.94164078649987 187.29366090222908,98.14589803375031 193,97.6 198.70633909777092,98.14589803375031 194.41068460550193,101.94164078649987 189.47328848624517,104.85410196624969 190.71746436089163,99.25835921350013" fill="#fff"/>
<polygon points="100,187 102.28253563910837,192.2583592135001 103.52671151375483,197.8541019662497 98.58931539449806,194.94164078649987 94.29366090222908,191.1458980337503 100,190.6 105.70633909777092,191.1458980337503 101.41068460550194,194.94164078649987 96.47328848624517,197.8541019662497 97.71746436089163,192.2583592135001" fill="#fff"/>
<polygon points="7,94 9.282535639108369,99.25835921350013 10.526711513754838,104.85410196624969 5.5893153944980645,101.94164078649987 1.2936609022290781,98.14589803375031 7,97.6 12.706339097770922,98.14589803375031 8.410684605501936,101.94164078649987 3.4732884862451625,104.85410196624969 4.717464360891631,99.25835921350013" fill="#fff"/>
<polygon points="7,1 9.282535639108369,6.2583592135001265 10.526711513754838,11.854101966249685 5.5893153944980645,8.941640786499875 1.2936609022290781,5.145898033750316 7,4.6 12.706339097770922,5.145898033750314 8.410684605501936,8.941640786499875 3.4732884862451625,11.854101966249686 4.717464360891631,6.2583592135001265" fill="#fff"/>
<polygon points="193,1 195.28253563910837,6.2583592135001265 196.52671151375483,11.854101966249685 191.58931539449807,8.941640786499875 187.29366090222908,5.145898033750316 193,4.6 198.70633909777092,5.145898033750314 194.41068460550193,8.941640786499875 189.47328848624517,11.854101966249686 190.71746436089163,6.2583592135001265" fill="#fff"/>
<polygon points="7,187 9.282535639108369,192.2583592135001 10.526711513754838,197.8541019662497 5.5893153944980645,194.94164078649987 1.2936609022290781,191.1458980337503 7,190.6 12.706339097770922,191.1458980337503 8.410684605501936,194.94164078649987 3.4732884862451625,197.8541019662497 4.717464360891631,192.2583592135001" fill="#fff"/>
<polygon points="193,187 195.28253563910837,192.2583592135001 196.52671151375483,197.8541019662497 191.58931539449807,194.94164078649987 187.29366090222908,191.1458980337503 193,190.6 198.70633909777092,191.1458980337503 194.41068460550193,194.94164078649987 189.47328848624517,197.8541019662497 190.71746436089163,192.2583592135001" fill="#fff"/>
</svg>